<?xml version="1.0" standalone="yes"?>
<svg xmlns="http://www.w3.org/2000/svg" width="31" height="35">
<path style="fill:#090502; stroke:none;" d="M0 0L0 6L6 1L0 0z"/>
<path style="fill:#c89130; stroke:none;" d="M6 0L7 1L6 0z"/>
<path style="fill:#090502; stroke:none;" d="M7 0L8 1L7 0z"/>
<path style="fill:#c89130; stroke:none;" d="M8 0L2 7L3 4L2 4L2 10L5 6L2 19L3 19L3 13L6 15L7 12L4 12L14 6L13 3L20 6L21 6L21 4L22 4L27 16L30 21L29 21L29 17L28 17L23 29L7 24L15 32L3 22L2 22L4 28L2 25L0 29L4 32L7 31L7 30L4 29L4 28L8 32L23 35C29.3732 23.5068 33.1269 17.2569 26 5L31 7L31 6L25 1L27 2L27 1L23 0L24 5L10 2L8 5L8 0z"/>
<path style="fill:#fffdd4; stroke:none;" d="M9 0L10 1L9 0z"/>
<path style="fill:#daac54; stroke:none;" d="M8 3L25 4C21.3055 -1.40528 12.5044 -1.59972 8 3z"/>
<path style="fill:#090502; stroke:none;" d="M26 0L30 6L31 6L31 0L26 0z"/>
<path style="fill:#a0671c; stroke:none;" d="M2 6L7 1L2 6z"/>
<path style="fill:#daac54; stroke:none;" d="M7 1L8 2L7 1z"/>
<path style="fill:#a0671c; stroke:none;" d="M23 1L24 2L23 1z"/>
<path style="fill:#daac54; stroke:none;" d="M25 1L27 4L25 1z"/>
<path style="fill:#fffdd4; stroke:none;" d="M26 2L28 4L26 2z"/>
<path style="fill:#a0671c; stroke:none;" d="M27 2L28 3L27 2z"/>
<path style="fill:#daac54; stroke:none;" d="M7 3L5 6L7 3z"/>
<path style="fill:#a0671c; stroke:none;" d="M8 5L11 3L8 5z"/>
<path style="fill:#daac54; stroke:none;" d="M13 5L20 5C17.9003 2.5966 15.0997 2.5966 13 5z"/>
<path style="fill:#a0671c; stroke:none;" d="M28 3L30 5L28 3z"/>
<path style="fill:#daac54; stroke:none;" d="M11 4L10 6L12 6L11 4z"/>
<path style="fill:#c89130; stroke:none;" d="M15 4L16 5L15 4M17 4L18 5L17 4z"/>
<path style="fill:#daac54; stroke:none;" d="M21.3333 4.66667L21.6667 5.33333L21.3333 4.66667z"/>
<path style="fill:#a0671c; stroke:none;" d="M23 4L24 5L23 4z"/>
<path style="fill:#daac54; stroke:none;" d="M25 4L26 5L25 4M28 4L29 5L28 4z"/>
<path style="fill:#a0671c; stroke:none;" d="M7 5L8 6L7 5M14.0039 5.65664C0.532372 9.74787 5.67994 32.9754 19.9599 28.3465C32.6133 24.2447 27.4358 1.57739 14.0039 5.65664M24 5L25 6L24 5z"/>
<path style="fill:#daac54; stroke:none;" d="M26 5L30 15L31 15C30.885 10.2544 30.0689 7.64671 26 5z"/>
<path style="fill:#a0671c; stroke:none;" d="M27 5L28 6L27 5z"/>
<path style="fill:#daac54; stroke:none;" d="M0 6L1 7L0 6M2 6L3 7L2 6M4 6C-0.450065 12.7409 -0.583853 20.8591 3 28L4 28L2 22L3 22C5.68628 27.1634 9.41278 30.3405 15 32C11.1857 26.6504 3.76887 23.924 6 16L6 15L3 13L3 19L2 19L4 6M5 13L10 6C6.61379 7.67189 5.16749 9.19408 5 13M23 6L24 7L23 6z"/>
<path style="fill:#a0671c; stroke:none;" d="M28.6667 6.33333L29.3333 6.66667L28.6667 6.33333z"/>
<path style="fill:#c89130; stroke:none;" d="M14 7L14 8L19 8L14 7z"/>
<path style="fill:#daac54; stroke:none;" d="M24 7L25 8L24 7z"/>
<path style="fill:#fffdd4; stroke:none;" d="M30 7L31 8L30 7z"/>
<path style="fill:#a0671c; stroke:none;" d="M1 8L2 9L1 8z"/>
<path style="fill:#c89130; stroke:none;" d="M8 8L9 9L8 8M12 8L13 9L12 8z"/>
<path style="fill:#daac54; stroke:none;" d="M11 11L21 10C17.6505 7.4656 13.5335 7.41418 11 11z"/>
<path style="fill:#c89130; stroke:none;" d="M20 8L21 9L20 8z"/>
<path style="fill:#daac54; stroke:none;" d="M25 8L29 14L25 8z"/>
<path style="fill:#c89130; stroke:none;" d="M30 8L31 9L30 8M10 10L9 14C15.0508 10.8878 17.8585 11.4648 24 14L23 19C32.479 10.6722 14.0607 9.85941 10 10z"/>
<path style="fill:#fffdd4; stroke:none;" d="M0 10L1 11L0 10z"/>
<path style="fill:#c89130; stroke:none;" d="M7 10L8 11L7 10z"/>
<path style="fill:#a0671c; stroke:none;" d="M0 11L1 12L0 11z"/>
<path style="fill:#c89130; stroke:none;" d="M14 12L14 13L18 13L14 12M26 11L27 12L26 11M0 12L0 17L1 17L0 12M20 14L21 15L20 14M8.33333 15.6667L8.66667 16.3333L8.33333 15.6667z"/>
<path style="fill:#daac54; stroke:none;" d="M28.3333 15.6667L28.6667 16.3333L28.3333 15.6667z"/>
<path style="fill:#c89130; stroke:none;" d="M5 16L5 22L6 22L5 16z"/>
<path style="fill:#daac54; stroke:none;" d="M9 16L10 19L9 16z"/>
<path style="fill:#090502; stroke:none;" d="M13 16L14 17L13 16z"/>
<path style="fill:#daac54; stroke:none;" d="M23 16L24 17L23 16z"/>
<path style="fill:#a0671c; stroke:none;" d="M29 16L29 21L30 21L29 16z"/>
<path style="fill:#c89130; stroke:none;" d="M20 17L21 18L20 17M8 18L8 21L10 20L10 19L8 18z"/>
<path style="fill:#daac54; stroke:none;" d="M28 18L29 19L28 18z"/>
<path style="fill:#c89130; stroke:none;" d="M2 20L3 21L2 20M0 21L0 24L1 24L0 21M9 21C12.0929 27.1872 19.4672 28.5623 23 22C17.0291 23.6634 14.7324 23.3861 9 21M15 23L18 23L17 21L15 23z"/>
<path style="fill:#daac54; stroke:none;" d="M27 21L23 29C25.8858 26.8025 28.1711 24.7385 27 21M30 21L25 31L30 28L31 26L30 21z"/>
<path style="fill:#c89130; stroke:none;" d="M6 22L7 23L6 22M26 22L27 23L26 22z"/>
<path style="fill:#a0671c; stroke:none;" d="M0 24L1 25L0 24z"/>
<path style="fill:#c89130; stroke:none;" d="M25 24L26 25L25 24z"/>
<path style="fill:#fffdd4; stroke:none;" d="M30 24L31 25L30 24z"/>
<path style="fill:#c89130; stroke:none;" d="M24 25L25 26L24 25z"/>
<path style="fill:#a0671c; stroke:none;" d="M1 26L2 27L1 26z"/>
<path style="fill:#c89130; stroke:none;" d="M29 26L30 29L26 33C28.4217 31.1577 31.6973 28.7388 29 26z"/>
<path style="fill:#a0671c; stroke:none;" d="M1 28C1.97356 31.3345 3.45909 33.6726 7 32L6 31L4 33L3 32L5 31L1 28z"/>
<path style="fill:#daac54; stroke:none;" d="M4 28L6 30L4 28z"/>
<path style="fill:#a0671c; stroke:none;" d="M5 28L6 29L5 28z"/>
<path style="fill:#fffdd4; stroke:none;" d="M28 28L29 29L28 28z"/>
<path style="fill:#a0671c; stroke:none;" d="M29 28L30 29L29 28z"/>
<path style="fill:#090502; stroke:none;" d="M0 29L0 35L5 35L0 29z"/>
<path style="fill:#a0671c; stroke:none;" d="M6 29L9 31L6 29z"/>
<path style="fill:#daac54; stroke:none;" d="M21 29L21 31L23 29L21 29z"/>
<path style="fill:#a0671c; stroke:none;" d="M24 29L25 30L24 29M27 29L28 30L27 29z"/>
<path style="fill:#090502; stroke:none;" d="M30 29L25 34L25 35L31 35L30 29z"/>
<path style="fill:#daac54; stroke:none;" d="M16.3333 30.6667L16.6667 31.3333L16.3333 30.6667M18.6667 30.3333L19.3333 30.6667L18.6667 30.3333z"/>
<path style="fill:#c89130; stroke:none;" d="M22 30L23 31L22 30z"/>
<path style="fill:#a0671c; stroke:none;" d="M23 30L24 31L23 30M26 30L27 31L26 30z"/>
<path style="fill:#daac54; stroke:none;" d="M3 31L4 32L3 31M6 31L8 35L22 34L22 33L6 31z"/>
<path style="fill:#a0671c; stroke:none;" d="M9 31L10 32L9 31M21.6667 31.3333L22.3333 31.6667L21.6667 31.3333M25 31L24 35L27 34L25 31M28 31L29 32L28 31z"/>
<path style="fill:#daac54; stroke:none;" d="M4 32L5 33L4 32M22 32L23 33L22 32z"/>
<path style="fill:#090502; stroke:none;" d="M24 32L25 33L24 32z"/>
<path style="fill:#a0671c; stroke:none;" d="M27 32L28 33L27 32z"/>
<path style="fill:#c89130; stroke:none;" d="M5 33L8 35L5 33z"/>
<path style="fill:#090502; stroke:none;" d="M7 33L8 34L7 33z"/>
<path style="fill:#daac54; stroke:none;" d="M23 33L24 34L23 33z"/>
<path style="fill:#c89130; stroke:none;" d="M9 34L10 35L9 34z"/>
<path style="fill:#fffdd4; stroke:none;" d="M21 34L22 35L21 34z"/>
<path style="fill:#090502; stroke:none;" d="M23 34L24 35L23 34z"/>
</svg>
