<?xml version="1.0" standalone="yes"?>
<svg xmlns="http://www.w3.org/2000/svg" width="1209" height="927">
<path style="fill:#fffffe; stroke:none;" d="M0 0L0 927L1209 927L1209 555L1208 555C1185.94 592.797 1165.37 632.125 1145.26 671C1138.99 683.117 1132.15 694.936 1125.78 707C1123.04 712.198 1120.35 720.477 1115.61 724.146C1106.24 731.398 1085.48 732.503 1074 735.373C1041.3 743.55 1008.7 752.198 976 760.373C927.292 772.55 878.707 785.197 830 797.373C816.31 800.796 802.689 804.451 789 807.873C783.629 809.216 776.565 812.358 771 811.516C760.232 809.888 747.415 798.819 738 793.421C712.272 778.672 686.72 763.614 661 748.85C571.534 697.496 481.949 646.253 393 594.011C323.975 553.471 254.522 513.532 185 473.85C167.622 463.93 150.192 454.038 133 443.799C127.954 440.794 116.954 437.108 115.318 430.957C113.497 424.108 115 415.073 115 408L115 359C115 352.722 112.62 340.36 117.318 335.529C121.309 331.425 128.058 328.97 133 326.15C145.279 319.146 157.73 312.44 170 305.421C174.679 302.744 181.809 300.282 185.397 296.211C192.508 288.143 181.129 272.385 191.059 265.104C205.754 254.329 223.339 246.528 239 237.201C244.257 234.07 252.482 231.25 256.397 226.471C259.131 223.132 258 217.024 258 213C258 202.902 254.609 185.486 258.603 176.21C261.578 169.303 276.759 163.014 283 159.053C301.029 147.612 318.877 135.865 337 124.576C343.862 120.302 353.831 111.675 362 110.711C366.239 110.211 370.487 113.792 374 115.691C381.538 119.768 389.335 123.414 397 127.247C424.019 140.757 451.429 153.938 478 168.309C487.056 173.206 503.587 186.003 514 185.849C521.116 185.744 531.58 174.057 537 169.789C554.631 155.907 572.134 141.814 590 128.235C595.164 124.31 605.902 114.695 612.576 114.52C618.237 114.371 626.531 122.894 631 125.974C646.93 136.954 662.912 147.922 679 158.667C684.48 162.327 693.989 171.702 701 170.387C710.448 168.616 720.675 156.661 728 150.8C748.554 134.356 768.577 116.591 790 101.301C801.085 93.3891 814.87 88.8141 827 82.7531C855.142 68.691 883.686 55.4414 912 41.7415C942.636 26.9178 974.806 5.41583 1009 1L982 0L923 0L716 0L0 0z"/>
<path style="fill:#29c7ed; stroke:none;" d="M706 169C715.035 167.015 721.039 171.266 729 175.247C742.464 181.979 756.563 191.841 771 196L771 198C752.127 205.154 733.802 221.465 717 232.667C711.574 236.284 701.792 245.785 695 245.573C689.92 245.415 683.876 238.781 680 235.873C667.697 226.646 655.503 217.245 643 208.29C638.995 205.422 633.22 198.992 628 199.064C621.143 199.159 612.411 205.157 606 207.575C590.781 213.314 575.28 218.363 560 223.947C553.571 226.296 542.83 232.295 536 230.861C522.01 227.923 507.144 218.952 494 213.281C467.73 201.946 441.269 191.053 415 179.719C404.693 175.272 394.323 170.984 384 166.579C379.991 164.868 374.501 161.199 370 162.207C355.465 165.461 338.838 179.449 326 186.989C296.857 204.105 267.36 220.579 238 237.281C226.615 243.757 215.294 250.356 204 256.989C199.283 259.76 192.114 262.243 188.603 266.529C183.93 272.236 187 288.837 187 296L228 275.302L247 278.576L287 285.999L408 308.611L467 319.498L486 310.15L524 288.001L542.714 278.363L564 289.6L608 315.85L626 325.382L640 318.424L673 298.6L799 224L799 678L799 726C799 731.14 797.283 740.144 800.028 744.671C803.156 749.83 812.867 753.361 818 756.281C824.266 759.845 835.678 769.667 843 769.307C848.603 769.031 855.274 763.167 860 760.424C863.175 758.582 867.951 756.856 869.972 753.621C874.988 745.597 871 724.431 871 715L871 612L871 296L871 208C871 198.242 867.635 180.785 872.028 172C875.079 165.898 882.207 161.638 887 156.986C895.854 148.392 904.97 138.852 915 131.633C923.443 125.557 933.537 122.025 942 116L942 558L942 632C942 639.112 939.102 654.418 943.028 660.471C946.767 666.235 958.144 670.026 964 673.424C969.572 676.658 980.322 685.992 987 684.907C992.86 683.956 1010.89 674.067 1013.4 668.621C1018.12 658.37 1014 637.32 1014 626L1014 523L1014 0C980.442 1.46265 946.351 24.0775 917 38.7531C876.065 59.2203 830.96 75.4597 792 99.4668C776.378 109.093 762.326 122.739 748 134.2C734.63 144.896 716.402 155.408 706 169z"/>
<path style="fill:#fffffe; stroke:none;" d="M1014 0L1014 445L1180 447L1187.85 478L1208 553L1209 553L1209 0L1014 0z"/>
<path style="fill:#453023; stroke:none;" d="M965 15L966 16L965 15M961 17L962 18L961 17M934 30L935 31L934 30M932 31L933 32L932 31M905 44L906 45L905 44M876 58L877 59L876 58M843 74L844 75L843 74M816 87L817 88L816 87M790 100L791 101L790 100M785 104L786 105L785 104M780 108L781 109L780 108z"/>
<path style="fill:#6702fe; stroke:none;" d="M258 226C286.758 215.531 314.378 193.888 341 178.719C349.017 174.151 362.239 162.583 371.576 162.248C375.853 162.094 381.112 165.628 385 167.201C396.418 171.819 407.686 176.851 419 181.719C444.613 192.739 470.353 203.478 496 214.421C508.642 219.816 521.816 227.196 535 230.992C542.044 233.019 553.366 226.477 560 224.053C576.276 218.106 592.663 212.434 609 206.656C614.654 204.656 621.95 199.367 628 199.468C633.768 199.565 640.601 207.074 645 210.373C656.327 218.868 667.562 227.505 679 235.849C683.232 238.936 688.82 244.766 694 245.921C700.171 247.297 710.099 237.543 715 234.344C733.46 222.293 751.543 208.358 771 198L771 196C757.213 190.26 744.335 182.422 731 175.753C725.777 173.141 718.932 168.01 713 167.716C703.713 167.256 693.978 174.124 685 175.997C653.02 182.67 621.033 189.393 589 195.8C577.141 198.172 559.955 205.267 548 203.52C534.36 201.527 520.104 189.358 508 183.248C474.266 166.218 440.794 148.65 407 131.753C394.112 125.309 378.093 113.33 364 110.553C356.487 109.073 344.034 119.424 338 123.343C319.098 135.62 300.145 147.914 281 159.808C274.881 163.609 261.388 169.152 258.603 176.093C256.811 180.563 258 187.251 258 192L258 226z"/>
<path style="fill:#453023; stroke:none;" d="M366 111L367 112L366 111M368 112L369 113L368 112M775 112L776 113L775 112M370 113L371 114L370 113z"/>
<path style="fill:#29c7ed; stroke:none;" d="M515 186L515 188C523.819 193.147 537.75 202.853 548 203.698C562.354 204.881 580.861 197.429 595 194.6C616.358 190.328 637.641 185.672 659 181.4C671.788 178.841 686.033 177.298 698 172C692.067 165.32 683.315 161.016 676 155.974C662.046 146.357 648.053 136.803 634 127.33C628.695 123.754 618.749 113.503 612 114.237C602.173 115.305 589.475 127.904 582 133.789C559.809 151.262 537.932 169.515 515 186z"/>
<path style="fill:#453023; stroke:none;" d="M770 116L771 117L770 116M941 116L942 117L941 116z"/>
<path style="fill:#6702fe; stroke:none;" d="M942 117C921.475 123.038 906.571 139.049 891 152.576C885.289 157.536 874.274 164.793 871.603 172.001C867.9 181.998 871 198.35 871 209L871 293L871 577L871 668C871 676.871 867.519 695.073 872.028 702.79C874.162 706.443 879.481 708.404 883 710.421C891.996 715.579 902.079 723.818 912 726.821C918.09 728.664 940.01 716.028 941.682 709.907C944.705 698.839 942 683.483 942 672L942 589L942 117z"/>
<path style="fill:#453023; stroke:none;" d="M765 120L766 121L765 120M934 120L935 121L934 120M932 121L933 122L932 121M930 122L931 123L930 122M760 124L761 125L760 124M333 126L334 127L333 126M923 126L924 127L923 126M921 127L922 128L921 127M755 128L756 129L755 128M750 132L751 133L750 132M581 134L582 135L581 134M745 136L746 137L745 136M906 138L907 139L906 138M421 139L422 140L421 139M905 139L906 140L905 139M423 140L424 141L423 140M740 140L741 141L740 140M904 140L905 141L904 140M425 141L426 142L425 141M308 142L309 143L308 142M735 144L736 145L735 144M567 145L568 146L567 145M730 148L731 149L730 148M893 150L894 151L893 150M892 151L893 152L892 151M725 152L726 153L725 152M891 152L892 153L891 152M720 156L721 157L720 156M283 158L284 159L283 158M715 160L716 161L715 160M880 162L881 163L880 162M376 163L377 164L376 163M544 163L545 164L544 163M879 163L880 164L879 163M365 164L366 165L365 164M710 164L711 165L710 164M878 164L879 165L878 164M383 166L384 167L383 166M474 166L475 167L474 166M476 167L477 168L476 167M711 167L712 168L711 167M358 168L359 169L358 168M388 168L389 169L388 168M478 168L479 169L478 168M705 168L704 170L706 170L705 168M708 168L709 169L708 168M356 169L357 170L356 169M390 169L391 170L390 169M480 169L481 170L480 169M695 169L696 170L695 169M395 171L396 172L395 171M698 171L699 172L698 171M349 173L350 174L349 173M258 174L259 175L258 174M402 174L403 175L402 174M691 174L692 175L691 174M687 175L688 176L687 175M344 176L345 177L344 176M682 176L683 177L682 176M409 177L410 178L409 177M677 177L678 178L677 177M672 178L673 179L672 178M337 180L338 181L337 180M416 180L417 181L416 180M663 180L664 181L663 180M521 181L522 182L521 181M658 181L659 182L658 181M741 181L742 182L741 181M653 182L654 183L653 182M743 182L744 183L743 182M423 183L424 184L423 183M648 183L649 184L648 183M745 183L746 184L745 183M330 184L331 185L330 184M643 184L644 185L643 184M747 184L748 185L747 184M428 185L429 186L428 185M749 185L750 186L749 185M751 186L752 187L751 186M325 187L326 188L325 187M629 187L630 188L629 187M753 187L754 188L753 187M435 188L436 189L435 188M624 188L625 189L624 188M755 188L756 189L755 188M619 189L620 190L619 189M614 190L615 191L614 190M318 191L319 192L318 191M442 191L443 192L442 191M609 191L610 192L609 191M449 194L450 195L449 194M595 194L596 195L595 194M311 195L312 196L311 195M590 195L591 196L590 195M585 196L586 197L585 196M456 197L457 198L456 197M580 197L581 198L580 197M306 198L307 199L306 198M575 198L576 199L575 198M629 198L630 199L629 198M570 199L571 200L570 199M463 200L464 201L463 200M623 200L624 201L623 200M561 201L562 202L561 201M633 201L634 202L633 201M764 201L765 202L764 201M299 202L300 203L299 202M468 202L469 203L468 202M556 202L557 203L556 202M551 203L552 204L551 203M616 203L617 204L616 203M761 203L762 204L761 203M637 204L638 205L637 204M475 205L476 206L475 205M758 205L759 206L758 205M292 206L293 207L292 206M606 207L607 208L606 207M641 207L642 208L641 207M755 207L756 208L755 207M482 208L483 209L482 208M603 208L604 209L603 208M287 209L288 210L287 209M752 209L753 210L752 209M489 211L490 212L489 211M749 211L750 212L749 211M280 213L281 214L280 213M589 213L590 214L589 213M496 214L497 215L496 214M586 214L587 215L586 214M273 217L274 218L273 217M503 217L504 218L503 217M575 218L576 219L575 218M508 219L509 220L508 219M572 219L573 220L572 219M268 220L269 221L268 220M515 222L516 223L515 222M561 223L562 224L561 223M261 224L262 225L261 224M558 224L559 225L558 224z"/>
<path style="fill:#6702fe; stroke:none;" d="M798 224C758.11 250.308 714.711 272.351 674 297.576C662.765 304.537 651.333 311.199 640 318C636.192 320.285 630.633 325.221 626 325.083C619.96 324.902 612.065 317.839 607 314.8C592.362 306.017 577.637 297.382 563 288.6C557.996 285.598 549.043 277.609 543 278.233C536.908 278.862 529.252 284.575 524 287.579C510.943 295.047 498.074 302.844 485 310.281C480.063 313.089 472.402 319.781 466.576 319.578C446.224 318.867 424.027 311.666 404 307.803C365.716 300.418 327.323 293.569 289 286.389C274.336 283.641 259.708 280.583 245 278.081C239.359 277.122 232.731 274.612 227 275.253C219.347 276.109 210.603 283.083 204 286.85C189.519 295.11 174.526 302.35 160 310.576C147.512 317.647 125.899 324.657 116.603 335.61C114.137 338.515 115 343.466 115 347L115 375L115 415C115 420.138 113.529 428.012 115.603 432.787C118.07 438.466 129.85 442.435 135 445.424C152.661 455.674 170.29 465.984 188 476.15C333.223 559.509 478.177 643.372 623 727.424C656.969 747.139 690.927 766.887 725 786.421C737.968 793.856 754.457 808.003 769 811.296C775.419 812.75 792.972 801.732 797.397 797.046C801.427 792.776 799 779.572 799 774L799 710L799 456L799 293L799 246C799 239.314 800.599 230.194 798 224z"/>
<path style="fill:#453023; stroke:none;" d="M522 225L523 226L522 225M794 226L795 227L794 226M792 227L793 228L792 227M529 228L530 229L529 228M544 229L545 230L544 229M541 230L542 231L541 230M717 232L718 233L717 232M781 233L782 234L781 233M714 234L715 235L714 234M241 235L242 236L241 235M711 236L712 237L711 236M708 238L709 239L708 238M684 239L685 240L684 239M770 239L771 240L770 239M705 240L706 241L705 240M688 242L689 243L688 242M702 242L703 243L702 242M765 242L766 243L765 242M692 245L693 246L692 245M760 245L761 246L760 245M222 246L223 247L222 246M755 248L756 249L755 248M750 251L751 252L750 251M203 257L204 258L203 257M737 259L738 260L737 259M732 262L733 263L732 262M727 265L728 266L727 265M722 268L723 269L722 268M717 271L718 272L717 271M712 274L713 275L712 274M231 275L232 276L231 275M236 276L237 277L236 276M241 277L242 278L241 277M707 277L708 278L707 277M219 278L220 279L219 278M541 278L542 279L541 278M217 279L218 280L217 279M252 279L253 280L252 279M539 279L540 280L539 279M547 279L548 280L547 279M257 280L258 281L257 280M537 280L538 281L537 280M702 280L703 281L702 280M263 281L264 282L263 281M268 282L269 283L268 282M552 282L553 283L552 282M273 283L274 284L273 283M697 283L698 284L697 283M208 284L209 285L208 284M279 284L280 285L279 284M206 285L207 286L206 285M284 285L285 286L284 285M557 285L558 286L557 285M289 286L290 287L289 286M295 287L296 288L295 287M524 287L525 288L524 287M201 288L202 289L201 288M300 288L301 289L300 288M562 288L563 289L562 288M199 289L200 290L199 289M305 289L306 290L305 289M197 290L198 291L197 290M311 290L312 291L311 290M316 291L317 292L316 291M517 291L518 292L517 291M567 291L568 292L567 291M321 292L322 293L321 292M327 293L328 294L327 293M190 294L191 295L190 294M332 294L333 295L332 294M512 294L513 295L512 294M572 294L573 295L572 294M337 295L338 296L337 295M343 296L344 297L343 296M348 297L349 298L348 297M674 297L675 298L674 297M505 298L506 299L505 298M359 299L360 300L359 299M364 300L365 301L364 300M669 300L670 301L669 300M176 301L177 302L176 301M500 301L501 302L500 301M375 302L376 303L375 302M380 303L381 304L380 303M664 303L665 304L664 303M391 305L392 306L391 305M493 305L494 306L493 305M396 306L397 307L396 306M659 306L660 307L659 306M407 308L408 309L407 308M488 308L489 309L488 308M412 309L413 310L412 309M654 309L655 310L654 309M160 310L161 311L160 310M423 311L424 312L423 311M428 312L429 313L428 312M481 312L482 313L481 312M649 312L650 313L649 312M439 314L440 315L439 314M151 315L152 316L151 315M444 315L445 316L444 315M644 315L645 316L644 315M609 316L610 317L609 316M455 317L456 318L455 317M460 318L461 319L460 318M639 318L640 319L639 318M469 319L470 320L469 319M614 319L615 320L614 319M467 320L468 321L467 320M465 321L466 322L465 321M619 322L620 323L619 322M462 323L463 324L462 323M135 324L136 325L135 324M460 324L461 325L460 324M624 325L625 326L624 325M455 327L456 328L455 327M119 333L120 334L119 333M135 445L136 446L135 445M1014 445L1014 625L1014 656L1012.97 668.621L997 679.15L987 684.277L973 678.15L942 661L942 696C942 700.339 943.201 706.915 940.972 710.815C938.413 715.294 931.282 717.859 927 720.397C923.245 722.622 917.607 727.351 913 726.532C899.205 724.082 883.403 709.601 871 703L871 738L869.972 752.79L856 762.201L842 768.764L829 762L799 745L799 781L797.972 795.61L773 811L773 812C852.592 795.572 931.149 771.586 1010 751.873C1034.36 745.784 1058.64 739.462 1083 733.373C1092.57 730.981 1107.34 730.093 1115.61 724.697C1119.65 722.062 1122.11 715.166 1124.24 711C1129.07 701.574 1134.26 692.31 1139.31 683C1155.2 653.695 1170.7 624.154 1186.86 595C1193.1 583.748 1206.8 566.824 1208.18 554C1209.1 545.367 1203.09 533.355 1200.88 525C1194.13 499.43 1183.85 473.148 1180 447L1014 445M154 456L155 457L154 456M173 467L174 468L173 467M180 471L181 472L180 471M199 482L200 483L199 482M218 493L219 494L218 493M225 497L226 498L225 497M244 508L245 509L244 508M263 519L264 520L263 519M270 523L271 524L270 523M289 534L290 535L289 534M308 545L309 546L308 545M315 549L316 550L315 549M334 560L335 561L334 560M353 571L354 572L353 571M360 575L361 576L360 575M379 586L380 587L379 586M398 597L399 598L398 597M424 612L425 613L424 612M443 623L444 624L443 623M235 626L235 627L259 626C253.897 622.535 240.819 624.279 235 626M260.667 624.333L261.333 624.667L260.667 624.333z"/>
<path style="fill:#d4a343; stroke:none;" d="M102 682C93.697 684.533 90.7107 697.049 85 703L86 706L85 711L79 720L82 721L79 723L78 729L78 730L80 731L80 732L78 736L81 737L78 741C87.5866 740.842 82.1103 748.442 83 754C79.6845 754.663 80.6979 757.54 83 758L89 777L91 777L90 779L101 791L105 796L114 807L113 804C123.063 812.204 133.332 822.998 146 827L146 826L144 826L144 825L188 846L186 848C230.882 871.608 284.397 868.856 333 865.184C357.12 863.361 382.329 861.421 405.015 851.681C421.326 844.677 435.121 836.502 449 825.4C453.628 821.698 462.085 817.194 463 811L471 804L470 801L479 789L477 787C480.046 785.279 480.276 784.216 479 781L482 780L484 776L484 772L484 771L484 767L484 766L480 764C482.233 752.223 485.577 730.63 474 722L475 719L462 704L458 699L459 697L455 696C454.663 688.706 440.838 680.187 435.039 676.667C420.906 668.088 406.89 659.11 391.999 651.662C385.448 648.385 373.938 646.041 369 641C349.259 639.858 329.046 629.954 309.039 627.486C288.858 624.997 270.386 625.882 250.464 627.188C244.093 627.605 237.977 625.845 231.536 626.333C207.539 628.153 184.992 633.86 162.424 641.782C145.248 647.81 130.242 656.703 116 667.997C111.316 671.711 103.137 675.866 102 682z"/>
<path style="fill:#453023; stroke:none;" d="M263 624L263 625L267 625L263 624M268.667 624.333L269.333 624.667L268.667 624.333M271.667 624.333L272.333 624.667L271.667 624.333M274.667 624.333L275.333 624.667L274.667 624.333M232.333 625.667L232.667 626.333L232.333 625.667M224.667 626.333L225.333 626.667L224.667 626.333M227 626L227 627L230 627L227 626M298 626L299 627L298 626M302 627L303 628L302 627M309.667 627.333L310.333 627.667L309.667 627.333M315 628L316 629L315 628z"/>
<path style="fill:#fffffe; stroke:none;" d="M249.83 629.505C221.641 632.764 195.121 635.539 168 644.831C150.22 650.922 131.018 659.67 117.17 672.59C85.9529 701.715 78.5728 744.878 101.864 781C108.225 790.865 116.031 800.239 125.039 807.8C182.752 856.241 266.45 872.09 340 862.561C362.142 859.692 384.29 854.15 405 845.799C453.785 826.128 495.898 775.641 468.215 722C462.076 710.104 453.629 699.491 443.946 690.286C407.3 655.448 354.409 637.69 305.086 631.659C287.033 629.451 267.995 627.404 249.83 629.505z"/>
<path style="fill:#453023; stroke:none;" d="M196 631L197 632L196 631z"/>
<path style="fill:#d4a343; stroke:none;" d="M140 812C141.187 817.998 155.015 826.691 161 826C165.984 835.507 176.512 835.704 185 839.325C190.463 841.656 195.969 845.507 202 844C205.195 848.817 214.871 851.287 220 849C222.821 853.833 228.945 853.687 234 854.884C246.863 857.932 260.771 860.508 274 860.989C320.492 862.681 370.913 861.659 413 838.564C422.472 833.366 445.954 823.469 448 812C458.545 806.526 464.973 794.114 469.039 783.424C487.231 735.599 452.73 696.524 415.845 670.911C398.618 658.949 378.764 651.519 359 645.113C296.039 624.709 215.309 622.327 155 653.21C116.704 672.821 80.4041 710.55 95.1944 757C98.0917 766.099 102.178 774.054 107.565 781.911C114.483 792.001 126.863 810.537 140 812z"/>
<path style="fill:#453023; stroke:none;" d="M260 632L261 633L260 632M334 632L335 633L334 632M186 633L186 634L189 634L186 633M243 633L244 634L243 633M245.667 633.333L246.333 633.667L245.667 633.333M248 633L251 635L248 633M292 633L293 634L292 633M231 635L230 643C225.397 640.729 221.43 636.658 217 641L222 639C221.619 642.408 220.252 643.187 217 644L217 645C224.676 644.936 234.668 645.032 238 637L236 634L231 635M344 634L345 635L344 634M180.667 635.333L181.333 635.667L180.667 635.333M226 635L227 636L226 635M309 635L310 636L309 635M241 636L243 639L244 636L241 636M352 636L353 637L352 636M172 637L173 638L172 637M174 637L175 638L174 637M295 637L296 638L295 637M319.667 637.333L320.333 637.667L319.667 637.333M323 637L324 638L323 637M355 637L356 638L355 637M253 638L254 639L253 638M325 638L326 639L325 638M357 638L358 639L357 638M469 638L470 639L469 638M249 639L250 640L249 639M259 639L260 640L259 639M262 639L263 640L262 639M330 639L331 640L330 639M240 641L240 642L244 641L240 641M335 640L335 641L339 642L339 641L335 640M340 641L340 642L344 643L344 642L340 641M367 641L368 642L367 641M369 641L369 643L371 643L369 641M162 642L163 643L162 642M329 643L330 644L329 643M345 643L346 644L345 643M371 643L372 644L371 643M374 643L375 644L374 643M212 644L210 647L212 644M350 644L350 645L354 646L354 645L350 644M376 644L377 645L376 644M378 645L379 646L378 645z"/>
<path style="fill:#fffffe; stroke:none;" d="M260 647C262.086 654.888 275.695 651.933 282 651C279.714 644.112 265.98 646.893 260 647z"/>
<path style="fill:#453023; stroke:none;" d="M303 646L304 647L303 646M357 646L357 647C368.223 652.268 384.082 655.057 393 664L389 664L388 669C393.087 666.589 396.287 662.961 401 668L395 667L394 671L394 672L405 668L404 672L408 671L415 674L413 680L416 677L421 678L420 681L424 684L428 683L426 687C429.911 686.348 434.815 687.739 434 691L438 691L438 690C414.667 670.687 386.925 653.088 357 646M202 647L202 649L204 647L202 647z"/>
<path style="fill:#fffffe; stroke:none;" d="M314 654C312.415 649.445 297.863 645.016 293.662 648.102C289.901 650.864 297.449 652.835 299.001 652.971C301.014 653.147 302.995 653.312 305 653.576C308.005 653.971 310.974 653.998 314 654z"/>
<path style="fill:#453023; stroke:none;" d="M226 648L227 649L226 648z"/>
<path style="fill:#fffffe; stroke:none;" d="M229 650C231.503 658.244 246.102 653.855 252 651C245.887 646.109 236.209 649.089 229 650z"/>
<path style="fill:#453023; stroke:none;" d="M317 648L318 649L317 648M192 649L193 650L192 649M218 650L218 651L224 649L218 650M346 649L347 650L346 649M488 649L489 650L488 649M142 650L143 651L142 650M327.667 650.333L328.333 650.667L327.667 650.333M189 651L190 652L189 651M255 651L256 652L255 651M330 651L331 652L330 651M333 651L334 652L333 651M391 651L392 652L391 651z"/>
<path style="fill:#fffffe; stroke:none;" d="M199 652L200 653L199 652M322 656L344 661L344 657C337.246 655.209 327.39 649.858 322 656z"/>
<path style="fill:#453023; stroke:none;" d="M335 652L336 653L335 652z"/>
<path style="fill:#fffffe; stroke:none;" d="M198 657C204.376 665.37 212.477 659.149 221 658L218 653L198 657z"/>
<path style="fill:#453023; stroke:none;" d="M259 653L259 654L279 654L259 653M395 653L396 654L395 653M135 654L136 655L135 654M223 654L223 655L245 656L223 654M249 654L250 655L249 654M293 654L293 655L309 657L293 654M342 654L343 655L342 654M396.667 654.333L397.333 654.667L396.667 654.333M318.667 655.333L319.333 655.667L318.667 655.333M348 655L358 659L358 658L348 655M399 655C403.603 662.027 414.481 665.238 422 668C418.241 661.376 405.872 657.861 399 655M424 737L425 737L427 739C416.226 709.713 393.989 687.053 365 675L365 674L369 673L369 672C365.891 670.966 351.804 663.437 351 668L330 663L330 662L341 663L341 662L322 658L322 659L327 660C317.362 662.435 304.973 657.476 295 657.039C270.331 655.959 246.058 656.996 222 663.286C185.558 672.814 136.372 703.397 150.175 748C152.282 754.808 154.97 761 158.865 767C163.63 774.341 170.069 781.231 176.999 786.586C226.064 824.495 304.471 832.825 362 811.81C393.803 800.193 428.952 775.91 424 737M310.667 656.333L311.333 656.667L310.667 656.333M377 657L374 659L374 660L377 657z"/>
<path style="fill:#d4a343; stroke:none;" d="M326 658L326 659L331 659L326 658z"/>
<path style="fill:#fffffe; stroke:none;" d="M129 659L130 660L129 659z"/>
<path style="fill:#453023; stroke:none;" d="M168 659L169 660L168 659z"/>
<path style="fill:#fffffe; stroke:none;" d="M179 659L180 660L179 659z"/>
<path style="fill:#453023; stroke:none;" d="M359 659L359 660L365 662L365 661L359 659M193 661L193 662L197 668L210 663L193 661M215 661L216 662L215 661z"/>
<path style="fill:#d4a343; stroke:none;" d="M327.667 661.333L328.333 661.667L327.667 661.333z"/>
<path style="fill:#fffffe; stroke:none;" d="M352 662C355.521 667.823 367.996 672.643 373 667C366.364 664.296 359.24 660.826 352 662M172 669C177.858 675.633 188.766 670.565 194 665C186.29 660.75 179.136 665.181 172 669z"/>
<path style="fill:#453023; stroke:none;" d="M211.667 662.333L212.333 662.667L211.667 662.333M346 662L346 663L349 664L346 662M366 662L367 663L366 662z"/>
<path style="fill:#fffffe; stroke:none;" d="M171 663L172 664L171 663z"/>
<path style="fill:#453023; stroke:none;" d="M368 663L368 664L371 665L368 663M382 664L383 665L382 664M514 664L515 665L514 664z"/>
<path style="fill:#d4a343; stroke:none;" d="M225 667C227.424 673.907 231.161 671.378 237 671L235 665L225 667z"/>
<path style="fill:#453023; stroke:none;" d="M349 665L350 666L349 665M384 667L387 667L386 665L384 667z"/>
<path style="fill:#fffffe; stroke:none;" d="M227 667L230 669L230 668L227 667z"/>
<path style="fill:#d4a343; stroke:none;" d="M358.667 667.333L359.333 667.667L358.667 667.333z"/>
<path style="fill:#453023; stroke:none;" d="M376 667L384 671L376 667M195 668C187.857 670.987 181.868 674.923 174 674C171.67 682.735 162.895 689.174 154 689L156 696L196 669L195 668z"/>
<path style="fill:#d4a343; stroke:none;" d="M220 668C220.919 671.744 222.144 673.346 226 674L220 668M352 668L353 669L352 668M360.667 668.333L361.333 668.667L360.667 668.333M336 669L334 676L344 673L344 671L336 669M354 669L355 670L354 669z"/>
<path style="fill:#453023; stroke:none;" d="M425 669L430 673L425 669z"/>
<path style="fill:#d4a343; stroke:none;" d="M208 672C210.9 677.183 214.576 677.74 220 676C218.576 669.423 213.374 670.625 208 672M216 782L222 784L222 783L220 781L229 778L223 785L226 786L226 787C213.814 790.743 232.492 795.988 237 796C238.005 800.992 244.645 801.112 249 802.282C260.862 805.466 272.741 807.389 285 808.079C324.863 810.321 388.677 800.577 400.522 754C405.438 734.666 393.267 715.26 379 703.325C375.512 700.407 364.068 689.597 360 694L354 694L359 691C348.03 679.922 324.855 676.003 310 674.045C272.414 669.09 229.508 667.954 197.001 690.921C183.346 700.568 173.027 711.49 170.514 728.675C167.229 751.144 186.094 771.192 204.001 781.11C207.473 783.033 211.809 789.382 215.887 789.365C220.46 789.346 217.065 783.736 216 782M356 670L356 671L360 672L360 671L356 670z"/>
<path style="fill:#453023; stroke:none;" d="M369 673L369 674L377 674L369 673z"/>
<path style="fill:#fffffe; stroke:none;" d="M112 672L113 673L112 672M339 672L340 673L339 672M378 674L378 675C384.011 678.051 392.103 686.692 398 680C390.573 676.755 386.501 671.951 378 674z"/>
<path style="fill:#453023; stroke:none;" d="M387 672L388 673L387 672z"/>
<path style="fill:#fffffe; stroke:none;" d="M153 673L152 675L153 673z"/>
<path style="fill:#453023; stroke:none;" d="M213 673L213 675L216 675L216 673L213 673z"/>
<path style="fill:#d4a343; stroke:none;" d="M342 678L346 678L350 679L351 682L356 676C349.673 675.14 346.728 671.812 342 678z"/>
<path style="fill:#453023; stroke:none;" d="M389 673L389 674L408 685C404.253 679.157 395.546 674.886 389 673M398 673L398 674L402 674L398 673M407 673L403 677L407 673M431.667 674.333L432.333 674.667L431.667 674.333z"/>
<path style="fill:#fffffe; stroke:none;" d="M150 684C157.841 690.463 162.989 684.994 169 679L168 675C160.578 675.22 155.798 679.835 150 684z"/>
<path style="fill:#d4a343; stroke:none;" d="M199 680C203.398 681.564 207.15 682.292 210 678L203 679L206 676C202.194 674.571 200.114 676.33 199 680z"/>
<path style="fill:#453023; stroke:none;" d="M533 675L534 676L533 675z"/>
<path style="fill:#fffffe; stroke:none;" d="M149 676L147 679L149 676z"/>
<path style="fill:#453023; stroke:none;" d="M285 676L286 677L285 676M288 676L289 677L288 676M292 676L293 677L292 676M295 676L296 677L295 676M298 676L299 677L298 676M104 677L105 678L104 677M300 677L301 678L300 677M376 677C379.165 682.175 387.259 685.521 393 687C389.582 681.63 382.142 678.095 376 677M436 677L437 678L436 677M138 678L139 679L138 678M305 678L306 679L305 678M308.667 678.333L309.333 678.667L308.667 678.333M312 678L315 680L315 679L312 678z"/>
<path style="fill:#d4a343; stroke:none;" d="M358 678L353 682L358 686L362 685L365 681L358 678z"/>
<path style="fill:#453023; stroke:none;" d="M438 678L439 679L438 678M440 679L441 680L440 679z"/>
<path style="fill:#fffffe; stroke:none;" d="M144 680L142 683L144 680z"/>
<path style="fill:#453023; stroke:none;" d="M319 680L320 681L319 680z"/>
<path style="fill:#fffffe; stroke:none;" d="M326 680L327 681L326 680z"/>
<path style="fill:#453023; stroke:none;" d="M441 680L442 681L441 680M100 681L101 682L100 681z"/>
<path style="fill:#fffffe; stroke:none;" d="M101 681L102 682L101 681M231 681L232 682L231 681z"/>
<path style="fill:#453023; stroke:none;" d="M321.667 681.333L322.333 681.667L321.667 681.333M325 681L328 683L328 682L325 681z"/>
<path style="fill:#fffffe; stroke:none;" d="M358 681L359 683L360 683L361 681L358 681z"/>
<path style="fill:#453023; stroke:none;" d="M98 682L99 683L98 682z"/>
<path style="fill:#d4a343; stroke:none;" d="M185 684L185 685L190 688L190 689L179 689L182 692L182 693C177.39 692.186 169.836 692.746 174 699C159.472 700.237 173.196 711.879 178 701L174 700L174 699C178.703 698.983 184.365 699.033 182 693C196.446 695.213 200.413 675.775 185 684z"/>
<path style="fill:#453023; stroke:none;" d="M413 684L416 682L413 684M129 683L128 685L129 683M328.667 683.333L329.333 683.667L328.667 683.333M445 683L446 684L445 683M191 684L194 686L191 684M330.667 684.333L331.333 684.667L330.667 684.333M339 685L340 686L339 685z"/>
<path style="fill:#d4a343; stroke:none;" d="M366 690C371.552 692.02 374.515 692.151 378 687C373.11 684.647 367.835 683.954 366 690z"/>
<path style="fill:#453023; stroke:none;" d="M394 685L398 688L394 685M416.667 685.333L417.333 685.667L416.667 685.333M446 685L447 686L446 685M332 686L333 687L332 686M410 686L411 687L410 686M148.667 687.333L149.333 687.667L148.667 687.333M370 688L370 689L374 688L370 688z"/>
<path style="fill:#fffffe; stroke:none;" d="M401 688C405.412 693.82 411.445 700.966 419 697C414.551 691.748 408.214 686.081 401 688z"/>
<path style="fill:#453023; stroke:none;" d="M412 687L413 688L412 687M422 687L421 689L422 687z"/>
<path style="fill:#fffffe; stroke:none;" d="M214 688L215 689L214 688z"/>
<path style="fill:#453023; stroke:none;" d="M348 688L348 691L350 691L350 688L348 688M413 689L414 690L413 689z"/>
<path style="fill:#fffffe; stroke:none;" d="M134 690L135 691L134 690z"/>
<path style="fill:#453023; stroke:none;" d="M296 690.818C289.602 690.545 282.147 693.647 276 695.265C263.388 698.586 250.655 701.463 238 704.627C232.523 705.996 221.795 706.59 217.738 710.728C210.722 717.884 210.437 739.369 208.003 749C207.176 752.272 204.802 758.397 206.363 761.61C208.467 765.937 217.904 768.2 222 770.247C233.543 776.015 245.335 781.271 257 786.781C262.242 789.257 268.056 793.599 274 793.852C280.228 794.117 287.004 790.929 293 789.503C306.019 786.407 318.933 782.727 332 779.793C337.17 778.632 348.615 777.61 352.143 773.486C359.013 765.456 359.156 745.191 361.731 735C362.581 731.634 364.904 725.685 362.933 722.418C360.483 718.358 351.172 715.807 347 713.756C335.764 708.232 324.27 703.195 313 697.742C307.806 695.229 301.923 691.07 296 690.818z"/>
<path style="fill:#d4a343; stroke:none;" d="M375 696L383 697C379.968 705.665 392.864 708.949 399 706C396.519 699.515 391.519 702.38 386 702L386 700L391 696L384 697L386 692C380.925 690.259 376.731 690.249 375 696z"/>
<path style="fill:#453023; stroke:none;" d="M398 690C400.851 695.34 406.233 699.287 412 701L398 690M415 690L418 692L418 691L415 690M559 690L560 691L559 690z"/>
<path style="fill:#fffffe; stroke:none;" d="M135 703C144.513 706.015 148.815 702.147 152 693C143.256 690.574 138.962 695.322 135 703z"/>
<path style="fill:#453023; stroke:none;" d="M426.667 692.333L427.333 692.667L426.667 692.333M438 692L439 696L444 697L438 692M379 695L383 694L379 695M418 693L419 694L418 693M455 693L456 694L455 693z"/>
<path style="fill:#d4a343; stroke:none;" d="M294 694.677C277.273 695.103 258.294 703.471 242 707.346C236.741 708.596 226.302 709.225 222.6 713.433C216.152 720.759 216.044 739.557 213.768 749.004C212.958 752.364 210.584 757.378 212.774 760.61C215.543 764.695 223.626 767.189 228 769.139C241.254 775.046 260.397 789.689 275 789.816C292.025 789.965 312.475 781.005 329 776.873C334.072 775.605 343.759 775.063 347.143 770.697C353.252 762.815 353.533 745.626 355.782 735.961C356.556 732.639 358.91 727.62 356.958 724.39C354.37 720.11 346.336 718.071 342 716.139C331.225 711.337 320.557 706.018 310 700.753C305.348 698.433 299.35 694.54 294 694.677z"/>
<path style="fill:#fffffe; stroke:none;" d="M321 697L321 698L329 697L329 695L321 697z"/>
<path style="fill:#453023; stroke:none;" d="M420 694L421 695L420 694M122 695L120 698L122 695M176 695L176 696L180 697L180 696L176 695z"/>
<path style="fill:#fffffe; stroke:none;" d="M202 695L200 698L202 695z"/>
<path style="fill:#453023; stroke:none;" d="M351 695L350 697L351 695z"/>
<path style="fill:#d4a343; stroke:none;" d="M407 695L410 698L407 695z"/>
<path style="fill:#453023; stroke:none;" d="M455 695L456 696L455 695M421 696L422 697L421 696M362 697L363 698L362 697M365 697L366 698L365 697M423 697L424 698L423 697M358 698L352 704L359 699L358 698M444 698L446 700L446 698L444 698M458 698L459 699L458 698M153 699L154 700L153 699z"/>
<path style="fill:#fffffe; stroke:none;" d="M197 699L196 701L197 699z"/>
<path style="fill:#453023; stroke:none;" d="M346 699L347 700L346 699M424 699L427 701L424 699M87 700L88 701L87 700M119 700L117 701L117 702L119 700z"/>
<path style="fill:#fffffe; stroke:none;" d="M127 700L126 702L127 700M156 701L157 702L156 701z"/>
<path style="fill:#453023; stroke:none;" d="M170 701L169 702L172 704L170 701M414 701L414 702L417 703L414 701M447.667 701.333L448.333 701.667L447.667 701.333M578 701L579 702L578 701M342 702L341 704L342 702z"/>
<path style="fill:#fffffe; stroke:none;" d="M356 702L357 703L356 702z"/>
<path style="fill:#453023; stroke:none;" d="M358 705L358 707L359 708C367.573 704.714 368.411 705.159 377 708L377 707L373 706L374 704C367.941 701.792 363.619 701.586 358 705z"/>
<path style="fill:#fffffe; stroke:none;" d="M408 702L412 706L408 702z"/>
<path style="fill:#453023; stroke:none;" d="M427 702L427 703L430 704L427 702M173.667 703.333L174.333 703.667L173.667 703.333z"/>
<path style="fill:#fffffe; stroke:none;" d="M326 703L326 704L329 705L326 703z"/>
<path style="fill:#453023; stroke:none;" d="M448 703L448 704L451 705L448 703M128 708L128 709L136 705L128 708z"/>
<path style="fill:#d4a343; stroke:none;" d="M327 704L328 705L327 704z"/>
<path style="fill:#453023; stroke:none;" d="M391 705L391 706L395 705L391 705z"/>
<path style="fill:#fffffe; stroke:none;" d="M419 704C422.338 710.547 425.985 716.815 434 715C431.258 707.923 426.585 704.09 419 704z"/>
<path style="fill:#453023; stroke:none;" d="M85 705L86 706L85 705M465.333 705.667L465.667 706.333L465.333 705.667z"/>
<path style="fill:#fffffe; stroke:none;" d="M191 706L190 708L191 706M347 709L347 711C350.807 711.326 352.278 710.39 354 707L347 709z"/>
<path style="fill:#453023; stroke:none;" d="M439 706L440 707L439 706M451 706L452 707L451 706M83 707L84 708L83 707M113 710L117 707L113 710M140 707L140 708L145 708L140 707M241 749C239.416 742.731 247.505 734.811 254 734.833C261.865 734.859 280.662 750.554 282 733C273.68 734.878 266.501 733.009 261 726C266.575 723.416 270.509 718.378 276 715.569C278.463 714.309 283.099 714.69 284.802 712.401C289.891 705.557 273.732 707.139 271 708.703C257.579 716.388 238.199 729.359 228.333 741.289C220.706 750.513 235.747 750.967 241 749M449 707L450 708L449 707M317 708L323 710L317 708M417 708L427 718L427 717L417 708M433 708L434 709L433 708M453 708L455 710L453 708M467 708L468 709L467 708M83 709L84 710L83 709z"/>
<path style="fill:#d4a343; stroke:none;" d="M161 709L159 714L169 715L171 710L161 709z"/>
<path style="fill:#453023; stroke:none;" d="M291 709C288.093 717.587 289.984 734.954 283.422 741.525C280.375 744.577 274.029 744.687 270 745.576C259.402 747.913 242.86 748.686 234 755C246.632 762.373 267.37 775.241 282 776C280.936 764.817 268.659 761.021 259 757L284 751C281.942 767.297 306.691 774.542 320 770L320 769C313.64 765.609 298.263 761.945 295.314 754.895C293.448 750.433 296.428 743.391 296.849 738.714C297.16 735.254 297.355 725.894 301.314 724.418C304.645 723.177 310.143 727.334 313 728.752C320.678 732.564 330.062 736.43 338 731C323.924 722.784 306.661 713.512 291 709z"/>
<path style="fill:#fffffe; stroke:none;" d="M339 709L340 710L339 709z"/>
<path style="fill:#453023; stroke:none;" d="M377 709L377 710L384 716L377 709M126 710L124 721L126 710z"/>
<path style="fill:#d4a343; stroke:none;" d="M401 716L399 713L407 714C400.588 704.135 390.807 717.941 401 716z"/>
<path style="fill:#453023; stroke:none;" d="M434 710L435 711L434 710z"/>
<path style="fill:#fffffe; stroke:none;" d="M130 711L127 724L138 725C139.291 715.42 141.774 711.009 130 711z"/>
<path style="fill:#453023; stroke:none;" d="M455 711L456 712L455 711z"/>
<path style="fill:#fffffe; stroke:none;" d="M164 712L165 713L164 712z"/>
<path style="fill:#453023; stroke:none;" d="M105 713L106 714L105 713M114 713L115 714L114 713z"/>
<path style="fill:#fffffe; stroke:none;" d="M149 713L150 714L149 713M185 713L186 714L185 713M320 717L326 713L320 717z"/>
<path style="fill:#453023; stroke:none;" d="M330 713C326.366 719.384 322.331 718.748 316 717C321.325 725.457 334.266 724.487 342 721L342 719L330 713M350 713L351 714L350 713M457 713L458 714L457 713M471.333 714.667L471.667 715.333L471.333 714.667M114 715C111.335 718.327 111.115 723.44 108.284 726.454C106.059 728.822 102.806 727.766 100.055 728.744C94.6474 730.666 95.5236 736.5 96 741L97 741L97 738L101 737L104 740L103 737L107 734C102.621 735.816 100.852 735.949 97 733L114 729L114 715M438 715L439 716L438 715M458 715L459 716L458 715M80 716L81 717L80 716z"/>
<path style="fill:#d4a343; stroke:none;" d="M157 717L159 720L156 721L156 723L166 724C165.783 717.918 165.639 713.362 157 717z"/>
<path style="fill:#453023; stroke:none;" d="M385 716L386 717L385 716M604 716L605 717L604 716z"/>
<path style="fill:#fffffe; stroke:none;" d="M119 717L120 718L119 717z"/>
<path style="fill:#d4a343; stroke:none;" d="M399 719L404 724L402 727L413 725L413 724L409 724C412.646 716.139 404.041 716.865 399 719z"/>
<path style="fill:#453023; stroke:none;" d="M439 717L440 718L439 717M458 717L461 720L458 717M386 718L391 724L386 718z"/>
<path style="fill:#fffffe; stroke:none;" d="M183 719L184 720L183 719z"/>
<path style="fill:#453023; stroke:none;" d="M404 721L407 721L406 719L404 721M456 722L459 720L456 722M81 721L82 722L81 721z"/>
<path style="fill:#fffffe; stroke:none;" d="M432 722C433.191 730.062 435.134 735.619 444 734C442.763 727.063 439.73 721.226 432 722z"/>
<path style="fill:#453023; stroke:none;" d="M461 721L463 725L464 725L461 721M107 722L108 723L107 722z"/>
<path style="fill:#fffffe; stroke:none;" d="M146 722L147 723L146 722z"/>
<path style="fill:#453023; stroke:none;" d="M476.333 723.667L476.667 724.333L476.333 723.667M79.3333 724.667L79.6667 725.333L79.3333 724.667M122 724L128 727L122 724M405 724L406 725L405 724z"/>
<path style="fill:#fffffe; stroke:none;" d="M145 725L146 726L145 725z"/>
<path style="fill:#d4a343; stroke:none;" d="M155 725L155 731L166 729L166 727L155 725z"/>
<path style="fill:#453023; stroke:none;" d="M391 725L394 728L391 725M80 726L81 727L80 726M304 727L302 737L320 736L304 727M464 727L465 728L464 727M478.333 727.667L478.667 728.333L478.333 727.667M623 727L624 728L623 727M78 728L79 729L78 728z"/>
<path style="fill:#d4a343; stroke:none;" d="M404 729L405 734L415 734L413 731L415 729L404 729z"/>
<path style="fill:#453023; stroke:none;" d="M393 729L394 730L393 729z"/>
<path style="fill:#fffffe; stroke:none;" d="M410 729L411 730L410 729z"/>
<path style="fill:#453023; stroke:none;" d="M445 729L446 730L445 729M464.667 729.333L465.333 729.667L464.667 729.333z"/>
<path style="fill:#fffffe; stroke:none;" d="M173 731C174.56 735.7 178.654 734.997 183 735C181.441 729.906 177.677 730.293 173 731z"/>
<path style="fill:#453023; stroke:none;" d="M479.333 730.667L479.667 731.333L479.333 730.667z"/>
<path style="fill:#fffffe; stroke:none;" d="M126 732L127 746C129.618 746 134.206 746.804 136.357 744.972C143.683 738.736 131.898 731.031 126 732z"/>
<path style="fill:#453023; stroke:none;" d="M394 731L395 732L394 731M465 731L466 732L465 731M111 732L110 734L112 734L111 732M480 732L480 735L481 735L480 732M101.667 733.333L102.333 733.667L101.667 733.333M78 734L79 735L78 734M467 734C466.914 737.28 464.023 740.518 468 741L468 742L466 743L470 744L467 734M109 737L112 735L109 737M480 736L481 740L482 740L480 736M77 739L78 740L81 737L77 739M338 757C343.131 746.289 319.076 737.01 310.001 737.394C307.32 737.508 298.855 741.327 303.643 744.883C305.877 746.541 311.132 745.6 314 746.735C317.345 748.059 320.71 749.407 324 750.862C328.689 752.935 333.056 755.576 338 757M448 738L449 739L448 738M642 738L643 739L642 738M81 748C79.415 750.499 79.4858 751.396 82 753C82.7287 751.283 83.9311 749.512 84.4151 747.711C87.1828 737.41 73.3803 742.916 81 748M107 743L111 740L107 743M426 740L427 741L426 740z"/>
<path style="fill:#fffffe; stroke:none;" d="M448 754C447.511 751.365 447.348 748.627 446.786 746.019C443.94 732.812 432.56 749.054 441.316 753.397C443.235 754.348 445.931 753.993 448 754z"/>
<path style="fill:#453023; stroke:none;" d="M461 741L462 742L461 741M482 741L482 746L483 746L482 741M100 742L101 743L100 742M104 742L105 743L104 742M426.667 742.333L427.333 742.667L426.667 742.333M649 742L650 743L649 742z"/>
<path style="fill:#fffffe; stroke:none;" d="M180 743L181 744L180 743z"/>
<path style="fill:#453023; stroke:none;" d="M110 744L109 746L111 746L110 744M427 744L428 745L427 744M435 744L436 745L435 744M100 745L101 746L100 745M103 745L104 746L103 745M450 745L451 746L450 745M469 745L467 747L468 758L463 759L467 761L467 769L456 770L466 774L453 776L453 777L461 779L462 779L463 779C470.27 771.738 476.071 754.925 469 745M124 746L124 747L128 748L128 747L124 746M435 746C435.004 750.919 434.48 754.795 440 756L440 755L435 746M483 746L482 748L484 748L483 746M427 748L428 749L427 748z"/>
<path style="fill:#fffffe; stroke:none;" d="M430 748L431 749L430 748z"/>
<path style="fill:#453023; stroke:none;" d="M481 749L482 750L481 749M483 749L484 750L483 749M482 750L480 764L485 766L483 759L486 756L482 750M104 751L103 753L104 751z"/>
<path style="fill:#fffffe; stroke:none;" d="M119 752L120 753L119 752M146 767C144.803 762.853 138.312 747.151 131.647 753.782C128.743 756.67 133.088 765.981 136.275 767.393C139.139 768.662 143.043 767.374 146 767z"/>
<path style="fill:#453023; stroke:none;" d="M481 752L482 753L481 752M82 753L83 754L82 753M460 753L461 754L460 753M668 753L669 754L668 753M265 757L265 758L282 764L280 754L265 757M80 755L80 757L82 757L80 755M112 755L113 756L112 755M450 756L451 757L450 756M82.3333 758.667L82.6667 759.333L82.3333 758.667z"/>
<path style="fill:#fffffe; stroke:none;" d="M121 758L122 759L121 758M150 758L151 759L150 758M442 758L435 771L443 774C446.288 767.755 446.417 763.481 442 758z"/>
<path style="fill:#453023; stroke:none;" d="M450 758L451 759L450 758z"/>
<path style="fill:#fffffe; stroke:none;" d="M122 760L123 761L122 760z"/>
<path style="fill:#453023; stroke:none;" d="M216 760L217 761L216 760M82.3333 761.667L82.6667 762.333L82.3333 761.667M218 761L218 762L224 764L224 763L218 761z"/>
<path style="fill:#fffffe; stroke:none;" d="M123 762L124 763L123 762z"/>
<path style="fill:#453023; stroke:none;" d="M426 762L427 763L426 762M450 762L451 763L450 762M187 763L188 764L187 763z"/>
<path style="fill:#fffffe; stroke:none;" d="M190 763L191 764L190 763z"/>
<path style="fill:#453023; stroke:none;" d="M458 763L458 764L464 764L458 763M84 764L85 765L84 764z"/>
<path style="fill:#fffffe; stroke:none;" d="M153 764L154 765L153 764z"/>
<path style="fill:#453023; stroke:none;" d="M225 764L225 765L274 788L274 787L260 780L260 778L266 773L248 765.427L237.715 768.593L225 764M687 764L688 765L687 764z"/>
<path style="fill:#fffffe; stroke:none;" d="M125 766L126 767L125 766z"/>
<path style="fill:#453023; stroke:none;" d="M433 767C431.217 770.889 430.891 774.745 436 775L433 767M191 768L192 769L191 768M694 768L695 769L694 768M134.667 769.333L135.333 769.667L134.667 769.333M483.333 769.667L483.667 770.333L483.333 769.667M86 770L87 771L86 770z"/>
<path style="fill:#fffffe; stroke:none;" d="M127 770L128 771L127 770z"/>
<path style="fill:#453023; stroke:none;" d="M192 770L195 772L195 771L192 770z"/>
<path style="fill:#fffffe; stroke:none;" d="M142 771L143 772L142 771M197 771L198 772L197 771M128 772L129 773L128 772z"/>
<path style="fill:#453023; stroke:none;" d="M482 772L482 775L483 775L482 772M87 773L88 774L87 773z"/>
<path style="fill:#fffffe; stroke:none;" d="M143 773L141 776C146.809 785.61 151.074 789.242 162 787C157.178 779.421 151.603 775.144 143 773z"/>
<path style="fill:#453023; stroke:none;" d="M194.667 773.333L195.333 773.667L194.667 773.333z"/>
<path style="fill:#fffffe; stroke:none;" d="M129 774L130 775L129 774M200 774L201 775L200 774M130 776L131 777L130 776z"/>
<path style="fill:#453023; stroke:none;" d="M442 778L442 779L444 781L445 781L446 776L442 778M199 777L199 778L203 779L203 778L199 777z"/>
<path style="fill:#fffffe; stroke:none;" d="M220 781L220 783C224.471 783.467 226.958 781.979 229 778L220 781z"/>
<path style="fill:#453023; stroke:none;" d="M160 778L161 779L160 778M481 778L482 779L481 778M91 779L92 780L91 779z"/>
<path style="fill:#fffffe; stroke:none;" d="M133 779L134 780L133 779M427 785L426 790C434.134 793.406 438.208 787.654 440 780C433.404 778.453 431.674 780.926 427 785z"/>
<path style="fill:#453023; stroke:none;" d="M453 779L453 780L459 781L453 779M713 779L714 780L713 779z"/>
<path style="fill:#fffffe; stroke:none;" d="M134 781L135 782L134 781M227 784L227 786C231.88 787.511 234.681 786.685 237 782L227 784z"/>
<path style="fill:#453023; stroke:none;" d="M241 781L242 782L241 781M459 783L459 784L464 781L459 783M479 781L480 782L479 781M243 782L244 783L243 782M417 782L418 783L417 782M450 782L453 784L450 782M93 783L94 784L93 783z"/>
<path style="fill:#fffffe; stroke:none;" d="M135 783L136 784L135 783z"/>
<path style="fill:#d4a343; stroke:none;" d="M189 789L193 788C193.769 791.589 195.863 790.834 199 790L197 793C204.164 795.87 206.885 799.257 215 797C212.51 791.308 208.438 790.744 203 793L206 789L202 786L197 787L198 784C193.717 783.294 190.434 784.773 189 789z"/>
<path style="fill:#453023; stroke:none;" d="M245 783L246 784L245 783M455 783L456 784L455 783M465 783L466 784L465 783z"/>
<path style="fill:#fffffe; stroke:none;" d="M137 784L138 785L137 784z"/>
<path style="fill:#453023; stroke:none;" d="M144 784L146 786L144 784M247 784L248 785L247 784M442 784L441 786L442 784M95 785L96 786L95 785z"/>
<path style="fill:#fffffe; stroke:none;" d="M193.667 785.333L194.333 785.667L193.667 785.333M235 788L235 790C239.733 790.973 242.094 789.812 245 786L235 788M138 786L139 787L138 786z"/>
<path style="fill:#453023; stroke:none;" d="M423 786L424 787L423 786M130 787L131 788L130 787z"/>
<path style="fill:#fffffe; stroke:none;" d="M140 787L141 788L140 787z"/>
<path style="fill:#453023; stroke:none;" d="M146 787L147 788L146 787z"/>
<path style="fill:#fffffe; stroke:none;" d="M171 787L172 788L171 787z"/>
<path style="fill:#453023; stroke:none;" d="M454 787L455 788L454 787M477.667 787.333L478.333 787.667L477.667 787.333M229 788L228 791L229 792L233 790L229 788z"/>
<path style="fill:#fffffe; stroke:none;" d="M242 791L242 793C246.952 794.535 249.481 793.576 252 789L242 791z"/>
<path style="fill:#453023; stroke:none;" d="M440 788L439 790L440 788M459 788L458 790L459 788z"/>
<path style="fill:#fffffe; stroke:none;" d="M141 789L142 790L141 789z"/>
<path style="fill:#453023; stroke:none;" d="M199 789L200 790L199 789M420 789L425 793L420 789M477 789L478 790L477 789M150 790L151 791L150 790z"/>
<path style="fill:#fffffe; stroke:none;" d="M404 790L405 791L404 790z"/>
<path style="fill:#453023; stroke:none;" d="M732 790L733 791L732 790M133 791L134 792L133 791z"/>
<path style="fill:#fffffe; stroke:none;" d="M180 791L181 792L180 791z"/>
<path style="fill:#453023; stroke:none;" d="M475 791L476 792L475 791z"/>
<path style="fill:#fffffe; stroke:none;" d="M144 792L145 793L144 792z"/>
<path style="fill:#453023; stroke:none;" d="M237 792L237 795L247 797L247 796L237 792M437 792L428 795L428 797C432.199 797.683 435.906 796.435 437 792z"/>
<path style="fill:#fffffe; stroke:none;" d="M177 793L176 795L177 793z"/>
<path style="fill:#453023; stroke:none;" d="M202 793L203 794L202 793z"/>
<path style="fill:#fffffe; stroke:none;" d="M411 793L409 796L411 793z"/>
<path style="fill:#453023; stroke:none;" d="M207 796L210 794L207 796z"/>
<path style="fill:#d4a343; stroke:none;" d="M244.667 794.333L245.333 794.667L244.667 794.333z"/>
<path style="fill:#453023; stroke:none;" d="M739 794L740 795L739 794z"/>
<path style="fill:#fffffe; stroke:none;" d="M147 795L148 796L147 795M179 798L179 800C184.96 802.824 192.09 807.747 196 800C189.691 796.319 185.672 794.341 179 798z"/>
<path style="fill:#d4a343; stroke:none;" d="M219 799L212 799C214.71 803.414 218.587 802.362 223 801C221.86 794.921 213.797 795.513 219 799z"/>
<path style="fill:#453023; stroke:none;" d="M135 796L136 797L135 796z"/>
<path style="fill:#fffffe; stroke:none;" d="M149 796L150 797L149 796M408 806C415.893 809.215 425.903 806.779 425 796C417.685 797.381 412.555 799.815 408 806M172 797L171 799L172 797z"/>
<path style="fill:#453023; stroke:none;" d="M473.333 797.667L473.667 798.333L473.333 797.667z"/>
<path style="fill:#fffffe; stroke:none;" d="M150 803C157.252 806.585 166.719 812.871 168 801L159 804L161 801C156.958 796.92 152.951 798.578 150 803z"/>
<path style="fill:#453023; stroke:none;" d="M105 799L106 800L105 799M110 800L112 803L110 800z"/>
<path style="fill:#d4a343; stroke:none;" d="M238 803C236.73 802.538 235.304 801.854 233.955 801.623C221.955 799.566 231.785 815.873 238 803z"/>
<path style="fill:#fffffe; stroke:none;" d="M390 801L389 803L390 801z"/>
<path style="fill:#453023; stroke:none;" d="M470 801L471 802L470 801M181 805L186 805C183.843 803.109 182.782 802.6 181 805z"/>
<path style="fill:#d4a343; stroke:none;" d="M183.667 802.333L184.333 802.667L183.667 802.333z"/>
<path style="fill:#fffffe; stroke:none;" d="M400 802L401 803L400 802z"/>
<path style="fill:#453023; stroke:none;" d="M401 808L407 808L406 804L409 803L401 808z"/>
<path style="fill:#fffffe; stroke:none;" d="M228 803L229 804L228 803M261 803L262 804L261 803z"/>
<path style="fill:#453023; stroke:none;" d="M110 804L111 805L110 804M113 804C120.638 820.466 139.783 823.862 151.49 835.637C154.616 838.781 155.722 844.224 158.066 848C162.563 855.246 168.354 861.261 175 866.55C213.579 897.252 270.213 901.278 317 893.414C337.282 890.005 357.873 882.868 375 871.329C381.368 867.038 388.687 862.103 392 855C342.118 868.127 289.925 872.321 239 863.833C224.888 861.481 211.62 856.478 198 852.833C194.993 852.029 186.023 848.824 188 846L144 825L144 826L146 826L146 827L113 804z"/>
<path style="fill:#d4a343; stroke:none;" d="M158 804L159 805L158 804z"/>
<path style="fill:#453023; stroke:none;" d="M230 806L233 804L230 806z"/>
<path style="fill:#d4a343; stroke:none;" d="M239 804L242 806L240 811L246 809L246 813C258.045 814.847 257.506 805.023 245 808L246 805L239 804z"/>
<path style="fill:#453023; stroke:none;" d="M425 804L426 805L425 804M447 804L448 805L447 804M469 804L470 805L469 804z"/>
<path style="fill:#fffffe; stroke:none;" d="M166 811L177 808C172.688 804.612 169.109 807.254 166 811z"/>
<path style="fill:#453023; stroke:none;" d="M195 814L206 806C201.013 806.208 197.214 809.631 195 814z"/>
<path style="fill:#fffffe; stroke:none;" d="M282 805L282 806L286 806L282 805M396 805L395 807L396 805z"/>
<path style="fill:#453023; stroke:none;" d="M758 805L759 806L758 805z"/>
<path style="fill:#fffffe; stroke:none;" d="M147 806L148 807L147 806z"/>
<path style="fill:#453023; stroke:none;" d="M189 806L189 810L193 807L189 806z"/>
<path style="fill:#fffffe; stroke:none;" d="M287 806L288 807L287 806M381 806L382 807L381 806M209 807L208 809L209 807z"/>
<path style="fill:#d4a343; stroke:none;" d="M115 808L116 809L115 808z"/>
<path style="fill:#fffffe; stroke:none;" d="M183 808L174 815C179.178 816.181 184.465 814.296 183 808z"/>
<path style="fill:#d4a343; stroke:none;" d="M116 809L117 810L116 809z"/>
<path style="fill:#fffffe; stroke:none;" d="M157 809L158 810L157 809z"/>
<path style="fill:#453023; stroke:none;" d="M160 809L161 810L160 809M212 809L204 817L214 810L212 809M250 809L253 811L250 809z"/>
<path style="fill:#d4a343; stroke:none;" d="M258 809L258 815C269.68 816.378 269.521 809.009 258 809z"/>
<path style="fill:#453023; stroke:none;" d="M162 810L163 811L162 810z"/>
<path style="fill:#fffffe; stroke:none;" d="M387 810L388 811L387 810M386 818L386 820C393.127 824.951 405.005 819.803 406 811L386 818z"/>
<path style="fill:#453023; stroke:none;" d="M411 810L410 813L411 814L415 812L411 810z"/>
<path style="fill:#fffffe; stroke:none;" d="M204 811L205 812L204 811z"/>
<path style="fill:#d4a343; stroke:none;" d="M275 811L277 814L275 817L284 817L285 811L275 811M286 812C286.398 817.108 288.388 817.826 293 816L298 818C298.596 810.233 291.781 811.8 286 812z"/>
<path style="fill:#fffffe; stroke:none;" d="M372 811L373 812L372 811z"/>
<path style="fill:#453023; stroke:none;" d="M463 811L464 812L463 811M128 812L129 813L128 812z"/>
<path style="fill:#fffffe; stroke:none;" d="M153 812L152 814L153 812z"/>
<path style="fill:#453023; stroke:none;" d="M219 812L222 814L219 812M262 814L265 812L262 814z"/>
<path style="fill:#d4a343; stroke:none;" d="M302 813L300 818L309 818C307.461 814.414 306.051 812.376 302 813z"/>
<path style="fill:#fffffe; stroke:none;" d="M361 814L361 816L368 816L369 815L369 812L361 814z"/>
<path style="fill:#453023; stroke:none;" d="M169.333 813.667L169.667 814.333L169.333 813.667z"/>
<path style="fill:#fffffe; stroke:none;" d="M182 819L192 816L191 813L182 819M227 813L228 814L227 813M265 813L266 814L265 813z"/>
<path style="fill:#453023; stroke:none;" d="M129 814L132 816L132 815L129 814z"/>
<path style="fill:#fffffe; stroke:none;" d="M200 814L199 816L200 814z"/>
<path style="fill:#453023; stroke:none;" d="M461 814L462 815L461 814z"/>
<path style="fill:#fffffe; stroke:none;" d="M149 815L147 818L149 815M189 822C196.512 824.403 200.902 827.853 208 823L208 822L200 821C197.801 814.613 191.763 817.599 189 822M374 816L375 817L374 816z"/>
<path style="fill:#453023; stroke:none;" d="M177 817L174 822L179 818L177 817M359 817L361 819L359 817z"/>
<path style="fill:#fffffe; stroke:none;" d="M414 817L413 819L414 817z"/>
<path style="fill:#453023; stroke:none;" d="M458 817L459 818L458 817M134 818L135 819L134 818M136 819L137 820L136 819z"/>
<path style="fill:#fffffe; stroke:none;" d="M169 819L164 821L164 822L169 824L170 823L169 819z"/>
<path style="fill:#453023; stroke:none;" d="M381 819L384 821L381 819z"/>
<path style="fill:#fffffe; stroke:none;" d="M242 820L241 822L242 820z"/>
<path style="fill:#453023; stroke:none;" d="M175 829L175 830L187 821L175 829M453 821L454 822L453 821M427 822L426 824L427 822z"/>
<path style="fill:#fffffe; stroke:none;" d="M358 828C361.619 837.54 377.916 831.338 381 824C372.91 822.565 365.591 825.437 358 828z"/>
<path style="fill:#453023; stroke:none;" d="M384 830L394 826C388.926 823.179 385.007 823.942 384 830M143 824L144 825L143 824z"/>
<path style="fill:#fffffe; stroke:none;" d="M205 827C208.267 830.32 210.901 829.722 215 828L215 825L205 827M237 824L236 826L237 824z"/>
<path style="fill:#453023; stroke:none;" d="M191 826L191 827L195 826L191 826z"/>
<path style="fill:#fffffe; stroke:none;" d="M259 825L260 826L259 825z"/>
<path style="fill:#453023; stroke:none;" d="M166 828L169 826L166 828z"/>
<path style="fill:#fffffe; stroke:none;" d="M185 826L186 827L185 826M264 826L265 827L264 826M397 826L396 828L397 826z"/>
<path style="fill:#d4a343; stroke:none;" d="M147 827L148 828L147 827z"/>
<path style="fill:#fffffe; stroke:none;" d="M273 827L274 828L273 827z"/>
<path style="fill:#d4a343; stroke:none;" d="M140 828L141 829L140 828z"/>
<path style="fill:#fffffe; stroke:none;" d="M214 833C218.366 833.712 220.356 832.462 223 829C218.658 827.953 216.088 829.021 214 833M278 828L279 829L278 828M320 828L321 829L320 828z"/>
<path style="fill:#453023; stroke:none;" d="M381 830L372 833L372 834L382 831L381 830z"/>
<path style="fill:#fffffe; stroke:none;" d="M221 834L221 836L228 838L230 832L221 834M282 838C278.841 834.428 256.582 826.184 255.211 834.089C254.562 837.836 259.572 837.947 262 838.281C268.932 839.234 275.373 840.807 282 838M341 831.426C337.158 831.918 331.631 831.598 328.177 833.525C323.451 836.162 328.691 839.681 332.004 839.516C336.431 839.296 343.824 838.835 347.663 836.487C353.43 832.959 343.39 831.12 341 831.426M388 831L389 832L388 831M173 834L179 837C179.706 832.38 176.528 831.637 173 834z"/>
<path style="fill:#453023; stroke:none;" d="M208.667 832.333L209.333 832.667L208.667 832.333z"/>
<path style="fill:#fffffe; stroke:none;" d="M384 832L385 833L384 832M190 833L191 834L190 833M291 841C298.974 841 311.386 843.668 317 837C309.821 833.939 291.827 830.074 291 841z"/>
<path style="fill:#453023; stroke:none;" d="M357 834L357 835L363 837L357 834z"/>
<path style="fill:#fffffe; stroke:none;" d="M195 836L195 837L202 838L202 836L195 836M212 835L210 838L212 835M229 838L229 840L241 840L241 839L238 835L229 838M186 836L185 838L186 836M373 836L374 837L373 836M284 837L285 838L284 837z"/>
<path style="fill:#453023; stroke:none;" d="M374 838L372 839L372 840L374 838z"/>
<path style="fill:#fffffe; stroke:none;" d="M207 839L205 842L207 839z"/>
<path style="fill:#453023; stroke:none;" d="M224 839L225 840L224 839M259 839L260 840L259 839M324 839L325 840L324 839M430 839L431 840L430 839z"/>
<path style="fill:#fffffe; stroke:none;" d="M242 840L243 841L242 840z"/>
<path style="fill:#453023; stroke:none;" d="M338.667 840.333L339.333 840.667L338.667 840.333M368 840L369 843L370 843L371 840L368 840M375 842L379 841L375 842z"/>
<path style="fill:#fffffe; stroke:none;" d="M218 841L216 844L218 841M247 841L248 842L247 841z"/>
<path style="fill:#453023; stroke:none;" d="M273 841L274 842L273 841M364 841L364 849L366 841L364 841z"/>
<path style="fill:#d4a343; stroke:none;" d="M175 842L176 843L175 842z"/>
<path style="fill:#fffffe; stroke:none;" d="M253 842L254 843L253 842z"/>
<path style="fill:#453023; stroke:none;" d="M353 844L356 850L352 851L351 848L350 848L351 852L334 850L334 851L338 852C334.942 854.956 332.339 856.022 329 853L323 856L323 857C332.286 856.89 340.764 858.017 350 855.761C357.16 854.012 360.92 850.894 355 845L361 845L362 843L353 844M385 842L386 843L385 842z"/>
<path style="fill:#fffffe; stroke:none;" d="M202 843L203 844L202 843M227 843L226 845L227 843M258 843L259 844L258 843M261 843L262 844L261 843z"/>
<path style="fill:#d4a343; stroke:none;" d="M179 844L180 845L179 844z"/>
<path style="fill:#fffffe; stroke:none;" d="M264 844L265 845L264 844M267 844L268 845L267 844z"/>
<path style="fill:#453023; stroke:none;" d="M383 844L384 845L383 844z"/>
<path style="fill:#d4a343; stroke:none;" d="M181 845L182 846L181 845z"/>
<path style="fill:#fffffe; stroke:none;" d="M213 845L211 848L213 845M275 845L276 846L275 845z"/>
<path style="fill:#453023; stroke:none;" d="M371 845L372 846L371 845z"/>
<path style="fill:#fffffe; stroke:none;" d="M223 846L221 849L223 846M287 846L288 847L287 846M297 846L298 847L297 846M300 846L301 847L300 846M303 846L304 847L303 846M306 846L307 847L306 846z"/>
<path style="fill:#453023; stroke:none;" d="M191.667 847.333L192.333 847.667L191.667 847.333M414 847L415 848L414 847M193.667 848.333L194.333 848.667L193.667 848.333M196 849L197 850L196 849M235.667 849.333L236.333 849.667L235.667 849.333M258 849L259 850L258 849M273 850L274 851L273 850M328 850L329 851L328 850M308 851L309 852L308 851M308 853L309 854L308 853M399 853L400 854L399 853M401 853L402 854L401 853M304 854L305 855L304 854M315 857L319 854L315 857M215 855L216 856L215 855M283 855L284 856L283 855M308 855L307 857L309 857L308 855M301.667 856.333L302.333 856.667L301.667 856.333M297 866L298 867L297 866z"/>
</svg>
